<svg width="1153" height="543" viewBox="0 0 1153 543" fill="none" xmlns="http://www.w3.org/2000/svg">
<path id="Ellipse 13" d="M3.38271 170.4C9.41026 136.216 31.0189 106.327 65.1774 81.5665C99.3441 56.7998 145.99 37.226 201.869 23.7001C313.621 -3.35036 462.016 -6.14144 620.536 21.8099C779.056 49.7613 917.546 103.138 1013.31 166.779C1061.19 198.6 1098.33 232.948 1121.96 267.906C1145.59 302.857 1155.68 338.334 1149.65 372.517C1143.62 406.701 1122.01 436.59 1087.85 461.351C1053.69 486.118 1007.04 505.691 951.163 519.217C839.41 546.268 691.016 549.059 532.496 521.107C373.976 493.156 235.486 439.78 139.724 376.139C91.8416 344.317 54.7034 309.97 31.068 275.011C7.43808 240.061 -2.64485 204.584 3.38271 170.4Z" stroke="white" stroke-width="3"/>
</svg>
