<svg width="1041" height="490" viewBox="0 0 1041 490" fill="none" xmlns="http://www.w3.org/2000/svg">
<path id="Ellipse 13" d="M3.71015 153.887C9.1383 123.102 28.5995 96.1738 59.3881 73.8559C90.1848 51.5321 132.238 33.8835 182.627 21.6866C283.399 -2.70611 417.224 -5.2248 560.187 19.9836C703.151 45.1919 828.044 93.3294 914.396 150.717C957.574 179.413 991.055 210.38 1012.36 241.89C1033.66 273.393 1042.74 305.353 1037.31 336.138C1031.88 366.922 1012.42 393.85 981.63 416.168C950.833 438.492 908.78 456.141 858.391 468.338C757.619 492.73 623.794 495.249 480.83 470.041C337.867 444.832 212.974 396.695 126.621 339.307C83.4432 310.612 49.9624 279.644 28.6582 248.134C7.35955 216.631 -1.71801 184.671 3.71015 153.887Z" stroke="white" stroke-width="3"/>
</svg>
