<svg width="927" height="437" viewBox="0 0 927 437" fill="none" xmlns="http://www.w3.org/2000/svg">
<path id="Ellipse 13" d="M3.03758 137.373C7.86634 109.988 25.1802 86.0203 52.5987 66.1453C80.0253 46.2644 117.486 30.541 162.384 19.673C252.177 -2.06186 371.432 -4.30816 498.839 18.1572C626.247 40.6226 737.542 83.5211 814.485 134.656C852.959 160.225 882.783 187.812 901.756 215.875C920.723 243.929 928.795 272.373 923.966 299.758C919.138 327.143 901.824 351.111 874.405 370.986C846.979 390.867 809.518 406.59 764.62 417.458C674.827 439.193 555.572 441.439 428.165 418.974C300.757 396.509 189.462 353.61 112.519 302.475C74.0449 276.906 44.2213 249.319 25.2484 221.257C6.28107 193.202 -1.79118 164.759 3.03758 137.373Z" stroke="white" stroke-width="3"/>
</svg>
