<svg width="1335" height="628" viewBox="0 0 1335 628" fill="none" xmlns="http://www.w3.org/2000/svg">
<path id="Ellipse 13" d="M4.21299 197.317C11.1996 157.694 36.2439 123.069 75.7946 94.3995C115.353 65.7242 169.348 43.0699 234.01 27.4179C363.331 -3.88511 535.037 -7.11201 718.447 25.2281C901.857 57.5683 1062.1 119.327 1172.92 192.973C1228.33 229.797 1271.32 269.552 1298.68 310.028C1326.04 350.495 1337.74 391.598 1330.75 431.221C1323.76 470.844 1298.72 505.47 1259.17 534.139C1219.61 562.814 1165.61 585.468 1100.95 601.121C971.631 632.424 799.925 635.65 616.515 603.31C433.105 570.97 272.859 509.211 162.043 435.566C106.633 398.741 63.6434 358.986 36.2778 318.51C8.91782 278.043 -2.7736 236.94 4.21299 197.317Z" stroke="white" stroke-width="3"/>
</svg>
